{"asset":{"version":"2.0","generator":"babylon.js glTF exporter for Maya 2018 v20210201.13"},"scene":0,"scenes":[{"nodes":[0,1]}],"nodes":[{"name":"aiSkyDomeLight1"},{"mesh":0,"name":"arcade_machine2"}],"meshes":[{"primitives":[{"attributes":{"POSITION":1,"TANGENT":2,"NORMAL":3,"TEXCOORD_0":4},"indices":0,"material":0},{"attributes":{"POSITION":6,"TANGENT":7,"NORMAL":8,"TEXCOORD_0":9},"indices":5,"material":1}],"name":"arcade_machine2"}],"accessors":[{"bufferView":0,"componentType":5123,"count":7542,"type":"SCALAR","name":"accessorIndices"},{"bufferView":1,"componentType":5126,"count":2374,"max":[2.94323134,1.653436,0.6189904],"min":[2.18118358,0.008050232,-0.400907159],"type":"VEC3","name":"accessorPositions"},{"bufferView":2,"componentType":5126,"count":2374,"type":"VEC4","name":"accessorTangents"},{"bufferView":1,"byteOffset":28488,"componentType":5126,"count":2374,"type":"VEC3","name":"accessorNormals"},{"bufferView":3,"componentType":5126,"count":2374,"type":"VEC2","name":"accessorUVs"},{"bufferView":0,"byteOffset":15084,"componentType":5123,"count":1710,"type":"SCALAR","name":"accessorIndices"},{"bufferView":1,"byteOffset":56976,"componentType":5126,"count":652,"max":[2.61452961,0.3804976,0.541926444],"min":[2.19240928,0.04988533,-0.2662899],"type":"VEC3","name":"accessorPositions"},{"bufferView":2,"byteOffset":37984,"componentType":5126,"count":652,"type":"VEC4","name":"accessorTangents"},{"bufferView":1,"byteOffset":64800,"componentType":5126,"count":652,"type":"VEC3","name":"accessorNormals"},{"bufferView":3,"byteOffset":18992,"componentType":5126,"count":652,"type":"VEC2","name":"accessorUVs"}],"bufferViews":[{"buffer":0,"byteLength":18504,"name":"bufferViewScalar"},{"buffer":0,"byteOffset":18504,"byteLength":72624,"byteStride":12,"name":"bufferViewFloatVec3"},{"buffer":0,"byteOffset":91128,"byteLength":48416,"byteStride":16,"name":"bufferViewFloatVec4"},{"buffer":0,"byteOffset":139544,"byteLength":24208,"byteStride":8,"name":"bufferViewFloatVec2"}],"buffers":[{"uri":"Big boy machine.bin","byteLength":163752}],"materials":[{"pbrMetallicRoughness":{"baseColorFactor":[0.8,0.8,0.8,1.0],"baseColorTexture":{"index":0},"metallicFactor":0.0,"roughnessFactor":0.2},"name":"bigboy_texture"},{"pbrMetallicRoughness":{"baseColorFactor":[0.5,0.5,0.5,1.0],"roughnessFactor":0.25},"name":"Metal"}],"textures":[{"sampler":0,"source":0,"name":"bigboy texture.png"}],"images":[{"uri":"bigboy texture.png"}],"samplers":[{"magFilter":9729,"minFilter":9987}]}