{
  "accessors": [
    {
      "bufferView": 0,
      "componentType": 5125,
      "count": 9876,
      "type": "SCALAR"
    },
    {
      "bufferView": 1,
      "componentType": 5126,
      "count": 2753,
      "max": [
        274.063354492188,
        117.215492248535,
        -79.6986541748047
      ],
      "min": [
        251.698547363281,
        89.5986480712891,
        -143.1923828125
      ],
      "type": "VEC3"
    },
    {
      "bufferView": 2,
      "componentType": 5126,
      "count": 2753,
      "type": "VEC3"
    },
    {
      "bufferView": 3,
      "componentType": 5126,
      "count": 2753,
      "type": "VEC2"
    }
  ],
  "asset": {
    "generator": "Substance Painter 6.1.3",
    "version": "2.0"
  },
  "bufferViews": [
    {
      "buffer": 0,
      "byteLength": 39504,
      "target": 34963
    },
    {
      "buffer": 0,
      "byteLength": 33036,
      "byteOffset": 39504,
      "target": 34962
    },
    {
      "buffer": 0,
      "byteLength": 33036,
      "byteOffset": 72540,
      "target": 34962
    },
    {
      "buffer": 0,
      "byteLength": 22024,
      "byteOffset": 105576,
      "target": 34962
    }
  ],
  "buffers": [
    {
      "byteLength": 127600,
      "uri": "Untitled.bin"
    }
  ],
  "images": [
    {
      "uri": "standardSurface3SG_baseColor.png"
    },
    {
      "uri": "standardSurface3SG_occlusionRoughnessMetallic.png"
    },
    {
      "uri": "standardSurface3SG_normal.png"
    }
  ],
  "materials": [
    {
      "alphaMode": "OPAQUE",
      "name": "standardSurface3SG",
      "normalTexture": {
        "index": 2
      },
      "occlusionTexture": {
        "index": 1
      },
      "pbrMetallicRoughness": {
        "baseColorTexture": {
          "index": 0
        },
        "metallicRoughnessTexture": {
          "index": 1
        }
      }
    }
  ],
  "meshes": [
    {
      "name": "Boom_box",
      "primitives": [
        {
          "attributes": {
            "NORMAL": 2,
            "POSITION": 1,
            "TEXCOORD_0": 3
          },
          "indices": 0,
          "material": 0,
          "mode": 4
        }
      ]
    }
  ],
  "nodes": [
    {
      "children": [
        1
      ],
      "name": "Boombox.obj"
    },
    {
      "children": [
        2
      ],
      "name": "Boom_box"
    },
    {
      "mesh": 0,
      "name": "Boom_box"
    }
  ],
  "samplers": [
    {
      "magFilter": 9729,
      "minFilter": 9985,
      "wrapS": 10497,
      "wrapT": 10497
    }
  ],
  "scene": 0,
  "scenes": [
    {
      "name": "Scene",
      "nodes": [
        0
      ]
    }
  ],
  "textures": [
    {
      "sampler": 0,
      "source": 0
    },
    {
      "sampler": 0,
      "source": 1
    },
    {
      "sampler": 0,
      "source": 2
    }
  ]
}