{"asset":{"version":"2.0","generator":"babylon.js glTF exporter for Maya 2018 v20210201.13"},"scene":0,"scenes":[{"nodes":[0]}],"nodes":[{"children":[1],"name":"BASE_MESH"},{"mesh":0,"name":"Big_lamp"}],"meshes":[{"primitives":[{"attributes":{"POSITION":1,"TANGENT":2,"NORMAL":3,"TEXCOORD_0":4},"indices":0,"material":0},{"attributes":{"POSITION":6,"TANGENT":7,"NORMAL":8,"TEXCOORD_0":9},"indices":5,"material":1},{"attributes":{"POSITION":11,"TANGENT":12,"NORMAL":13,"TEXCOORD_0":14},"indices":10,"material":2},{"attributes":{"POSITION":16,"TANGENT":17,"NORMAL":18,"TEXCOORD_0":19},"indices":15,"material":3},{"attributes":{"POSITION":21,"TANGENT":22,"NORMAL":23,"TEXCOORD_0":24},"indices":20,"material":4}],"name":"Big_lamp"}],"accessors":[{"bufferView":0,"componentType":5123,"count":180,"type":"SCALAR","name":"accessorIndices"},{"bufferView":1,"componentType":5126,"count":61,"max":[-1.13509762,1.65758371,1.73082793],"min":[-1.82336652,0.362280577,1.04198658],"type":"VEC3","name":"accessorPositions"},{"bufferView":2,"componentType":5126,"count":61,"type":"VEC4","name":"accessorTangents"},{"bufferView":1,"byteOffset":732,"componentType":5126,"count":61,"type":"VEC3","name":"accessorNormals"},{"bufferView":3,"componentType":5126,"count":61,"type":"VEC2","name":"accessorUVs"},{"bufferView":0,"byteOffset":360,"componentType":5123,"count":624,"type":"SCALAR","name":"accessorIndices"},{"bufferView":1,"byteOffset":1464,"componentType":5126,"count":242,"max":[-1.34813488,1.61890686,1.51818812],"min":[-1.8110615,0.4040805,1.2117871],"type":"VEC3","name":"accessorPositions"},{"bufferView":2,"byteOffset":976,"componentType":5126,"count":242,"type":"VEC4","name":"accessorTangents"},{"bufferView":1,"byteOffset":4368,"componentType":5126,"count":242,"type":"VEC3","name":"accessorNormals"},{"bufferView":3,"byteOffset":488,"componentType":5126,"count":242,"type":"VEC2","name":"accessorUVs"},{"bufferView":0,"byteOffset":1608,"componentType":5123,"count":2868,"type":"SCALAR","name":"accessorIndices"},{"bufferView":1,"byteOffset":7272,"componentType":5126,"count":910,"max":[-1.13498378,1.66777706,1.7309829],"min":[-1.91486192,0.362280577,1.04110932],"type":"VEC3","name":"accessorPositions"},{"bufferView":2,"byteOffset":4848,"componentType":5126,"count":910,"type":"VEC4","name":"accessorTangents"},{"bufferView":1,"byteOffset":18192,"componentType":5126,"count":910,"type":"VEC3","name":"accessorNormals"},{"bufferView":3,"byteOffset":2424,"componentType":5126,"count":910,"type":"VEC2","name":"accessorUVs"},{"bufferView":0,"byteOffset":7344,"componentType":5123,"count":780,"type":"SCALAR","name":"accessorIndices"},{"bufferView":1,"byteOffset":29112,"componentType":5126,"count":765,"max":[-1.13498378,1.69587123,1.7309829],"min":[-1.91486192,0.362280577,1.04110932],"type":"VEC3","name":"accessorPositions"},{"bufferView":2,"byteOffset":19408,"componentType":5126,"count":765,"type":"VEC4","name":"accessorTangents"},{"bufferView":1,"byteOffset":38292,"componentType":5126,"count":765,"type":"VEC3","name":"accessorNormals"},{"bufferView":3,"byteOffset":9704,"componentType":5126,"count":765,"type":"VEC2","name":"accessorUVs"},{"bufferView":0,"byteOffset":8904,"componentType":5123,"count":1200,"type":"SCALAR","name":"accessorIndices"},{"bufferView":1,"byteOffset":47472,"componentType":5126,"count":1512,"max":[-1.13498378,1.69587123,1.7309829],"min":[-1.91486192,0.362280577,1.04110932],"type":"VEC3","name":"accessorPositions"},{"bufferView":2,"byteOffset":31648,"componentType":5126,"count":1512,"type":"VEC4","name":"accessorTangents"},{"bufferView":1,"byteOffset":65616,"componentType":5126,"count":1512,"type":"VEC3","name":"accessorNormals"},{"bufferView":3,"byteOffset":15824,"componentType":5126,"count":1512,"type":"VEC2","name":"accessorUVs"}],"bufferViews":[{"buffer":0,"byteLength":11304,"name":"bufferViewScalar"},{"buffer":0,"byteOffset":11304,"byteLength":83760,"byteStride":12,"name":"bufferViewFloatVec3"},{"buffer":0,"byteOffset":95064,"byteLength":55840,"byteStride":16,"name":"bufferViewFloatVec4"},{"buffer":0,"byteOffset":150904,"byteLength":27920,"byteStride":8,"name":"bufferViewFloatVec2"}],"buffers":[{"uri":"Livingroomlamp.bin","byteLength":178824}],"materials":[{"pbrMetallicRoughness":{"baseColorFactor":[0.42080003,0.8,0.8,1.0],"metallicFactor":0.0,"roughnessFactor":0.4},"name":"standardSurface3"},{"pbrMetallicRoughness":{"baseColorFactor":[0.6433567,0.6433567,0.6433567,1.0],"roughnessFactor":0.161073819},"name":"Metalic"},{"pbrMetallicRoughness":{"baseColorFactor":[0.55272,0.55272,0.0,1.0],"metallicFactor":0.0,"roughnessFactor":0.347272724},"name":"yellow_plastic"},{"pbrMetallicRoughness":{"baseColorFactor":[0.4704,0.4704,0.0,1.0],"metallicFactor":0.409395963,"roughnessFactor":0.2},"name":"yellow_metal"},{"pbrMetallicRoughness":{"baseColorFactor":[0.895,0.895,0.895,1.0],"metallicFactor":0.0,"roughnessFactor":0.120000005},"name":"white_furniture"}]}