{"asset":{"version":"2.0","generator":"babylon.js glTF exporter for Maya 2018 v20210201.13"},"scene":0,"scenes":[{"nodes":[0]}],"nodes":[{"children":[1],"name":"BASE_MESH"},{"mesh":0,"translation":[-5.05806065,0.0,0.0],"name":"plant"}],"meshes":[{"primitives":[{"attributes":{"POSITION":1,"TANGENT":2,"NORMAL":3,"TEXCOORD_0":4},"indices":0,"material":0},{"attributes":{"POSITION":6,"TANGENT":7,"NORMAL":8,"TEXCOORD_0":9},"indices":5,"material":1},{"attributes":{"POSITION":11,"TANGENT":12,"NORMAL":13,"TEXCOORD_0":14},"indices":10,"material":2}],"name":"plant"}],"accessors":[{"bufferView":0,"componentType":5123,"count":60,"type":"SCALAR","name":"accessorIndices"},{"bufferView":1,"componentType":5126,"count":21,"max":[2.730108,0.477472723,-2.24442244],"min":[2.28410649,0.477472723,-2.6904242],"type":"VEC3","name":"accessorPositions"},{"bufferView":2,"componentType":5126,"count":21,"type":"VEC4","name":"accessorTangents"},{"bufferView":1,"byteOffset":252,"componentType":5126,"count":21,"type":"VEC3","name":"accessorNormals"},{"bufferView":3,"componentType":5126,"count":21,"type":"VEC2","name":"accessorUVs"},{"bufferView":0,"byteOffset":120,"componentType":5123,"count":660,"type":"SCALAR","name":"accessorIndices"},{"bufferView":1,"byteOffset":504,"componentType":5126,"count":205,"max":[2.75488615,0.52545464,-2.21964431],"min":[2.2593286,-0.00352236349,-2.71520185],"type":"VEC3","name":"accessorPositions"},{"bufferView":2,"byteOffset":336,"componentType":5126,"count":205,"type":"VEC4","name":"accessorTangents"},{"bufferView":1,"byteOffset":2964,"componentType":5126,"count":205,"type":"VEC3","name":"accessorNormals"},{"bufferView":3,"byteOffset":168,"componentType":5126,"count":205,"type":"VEC2","name":"accessorUVs"},{"bufferView":0,"byteOffset":1440,"componentType":5123,"count":2856,"type":"SCALAR","name":"accessorIndices"},{"bufferView":1,"byteOffset":5424,"componentType":5126,"count":1346,"max":[2.86961579,1.74444532,-2.24306369],"min":[2.1692307,0.475748777,-2.88585258],"type":"VEC3","name":"accessorPositions"},{"bufferView":2,"byteOffset":3616,"componentType":5126,"count":1346,"type":"VEC4","name":"accessorTangents"},{"bufferView":1,"byteOffset":21576,"componentType":5126,"count":1346,"type":"VEC3","name":"accessorNormals"},{"bufferView":3,"byteOffset":1808,"componentType":5126,"count":1346,"type":"VEC2","name":"accessorUVs"}],"bufferViews":[{"buffer":0,"byteLength":7152,"name":"bufferViewScalar"},{"buffer":0,"byteOffset":7152,"byteLength":37728,"byteStride":12,"name":"bufferViewFloatVec3"},{"buffer":0,"byteOffset":44880,"byteLength":25152,"byteStride":16,"name":"bufferViewFloatVec4"},{"buffer":0,"byteOffset":70032,"byteLength":12576,"byteStride":8,"name":"bufferViewFloatVec2"}],"buffers":[{"uri":"Livingroomplant.bin","byteLength":82608}],"materials":[{"pbrMetallicRoughness":{"baseColorTexture":{"index":0},"metallicFactor":0.0,"roughnessFactor":0.362416118},"name":"wood_texture"},{"pbrMetallicRoughness":{"baseColorFactor":[0.55272,0.55272,0.0,1.0],"metallicFactor":0.0,"roughnessFactor":0.347272724},"name":"yellow_plastic"},{"pbrMetallicRoughness":{"baseColorFactor":[0.135648012,0.432,0.135648012,1.0],"metallicFactor":0.0,"roughnessFactor":0.704697967},"name":"plant_green01"}],"textures":[{"sampler":0,"source":0,"name":"dark wood texture.png"}],"images":[{"uri":"dark wood texture.png"}],"samplers":[{"magFilter":9729,"minFilter":9987}]}