{
  "accessors": [
    {
      "bufferView": 0,
      "componentType": 5125,
      "count": 1200,
      "type": "SCALAR"
    },
    {
      "bufferView": 1,
      "componentType": 5126,
      "count": 392,
      "max": [
        -208.506927490234,
        78.0659713745117,
        82.4108352661133
      ],
      "min": [
        -236.721115112305,
        77.5647430419922,
        54.1970672607422
      ],
      "type": "VEC3"
    },
    {
      "bufferView": 2,
      "componentType": 5126,
      "count": 392,
      "type": "VEC3"
    },
    {
      "bufferView": 3,
      "componentType": 5126,
      "count": 392,
      "type": "VEC2"
    },
    {
      "bufferView": 4,
      "componentType": 5125,
      "count": 16956,
      "type": "SCALAR"
    },
    {
      "bufferView": 5,
      "componentType": 5126,
      "count": 4622,
      "max": [
        -205.478622436523,
        110.891258239746,
        93.3461608886719
      ],
      "min": [
        -252.603057861328,
        69.5021820068359,
        45.6818923950195
      ],
      "type": "VEC3"
    },
    {
      "bufferView": 6,
      "componentType": 5126,
      "count": 4622,
      "type": "VEC3"
    },
    {
      "bufferView": 7,
      "componentType": 5126,
      "count": 4622,
      "type": "VEC2"
    }
  ],
  "asset": {
    "generator": "Substance Painter 6.1.3",
    "version": "2.0"
  },
  "bufferViews": [
    {
      "buffer": 0,
      "byteLength": 4800,
      "target": 34963
    },
    {
      "buffer": 0,
      "byteLength": 4704,
      "byteOffset": 4800,
      "target": 34962
    },
    {
      "buffer": 0,
      "byteLength": 4704,
      "byteOffset": 9504,
      "target": 34962
    },
    {
      "buffer": 0,
      "byteLength": 3136,
      "byteOffset": 14208,
      "target": 34962
    },
    {
      "buffer": 0,
      "byteLength": 67824,
      "byteOffset": 17344,
      "target": 34963
    },
    {
      "buffer": 0,
      "byteLength": 55464,
      "byteOffset": 85168,
      "target": 34962
    },
    {
      "buffer": 0,
      "byteLength": 55464,
      "byteOffset": 140632,
      "target": 34962
    },
    {
      "buffer": 0,
      "byteLength": 36976,
      "byteOffset": 196096,
      "target": 34962
    }
  ],
  "buffers": [
    {
      "byteLength": 233072,
      "uri": "Substance record.bin"
    }
  ],
  "images": [
    {
      "uri": "standardSurface3SG_baseColor.png"
    },
    {
      "uri": "standardSurface3SG_occlusionRoughnessMetallic.png"
    },
    {
      "uri": "standardSurface3SG_normal.png"
    }
  ],
  "materials": [
    {
      "alphaMode": "OPAQUE",
      "name": "standardSurface3SG",
      "normalTexture": {
        "index": 2
      },
      "occlusionTexture": {
        "index": 1
      },
      "pbrMetallicRoughness": {
        "baseColorTexture": {
          "index": 0
        },
        "metallicRoughnessTexture": {
          "index": 1
        }
      }
    }
  ],
  "meshes": [
    {
      "name": "record4",
      "primitives": [
        {
          "attributes": {
            "NORMAL": 2,
            "POSITION": 1,
            "TEXCOORD_0": 3
          },
          "indices": 0,
          "material": 0,
          "mode": 4
        }
      ]
    },
    {
      "name": "record_player",
      "primitives": [
        {
          "attributes": {
            "NORMAL": 6,
            "POSITION": 5,
            "TEXCOORD_0": 7
          },
          "indices": 4,
          "material": 0,
          "mode": 4
        }
      ]
    }
  ],
  "nodes": [
    {
      "children": [
        1,
        3
      ],
      "name": "recordplayer.obj"
    },
    {
      "children": [
        2
      ],
      "name": "record4"
    },
    {
      "mesh": 0,
      "name": "record4"
    },
    {
      "children": [
        4
      ],
      "name": "record_player"
    },
    {
      "mesh": 1,
      "name": "record_player"
    }
  ],
  "samplers": [
    {
      "magFilter": 9729,
      "minFilter": 9985,
      "wrapS": 10497,
      "wrapT": 10497
    }
  ],
  "scene": 0,
  "scenes": [
    {
      "name": "Scene",
      "nodes": [
        0
      ]
    }
  ],
  "textures": [
    {
      "sampler": 0,
      "source": 0
    },
    {
      "sampler": 0,
      "source": 1
    },
    {
      "sampler": 0,
      "source": 2
    }
  ]
}